  <svg width="13" height="19" viewBox="0 0 13 19" fill="none" xmlns="http://www.w3.org/2000/svg">
<path fill-rule="evenodd" clip-rule="evenodd" d="M13 6.35C13 3.11913 10.0899 0.5 6.5 0.5C2.91015 0.5 0 3.11913 0 6.35C0 8.40818 1.97835 12.1977 5.93506 17.7184L6.5 18.5L7.33778 17.3361L7.61735 16.9406C11.2058 11.8403 13 8.31006 13 6.35ZM3.25 6.76087C3.25 5.03198 4.70507 3.63043 6.5 3.63043C8.29493 3.63043 9.75 5.03198 9.75 6.76087C9.75 8.48976 8.29493 9.8913 6.5 9.8913C4.70507 9.8913 3.25 8.48976 3.25 6.76087Z" fill="white" fill-opacity="0.669635"/>
</svg>
